<?xml version="1.0" standalone="no"?>
<!DOCTYPE svg PUBLIC "-//W3C//DTD SVG 20010904//EN"
 "http://www.w3.org/TR/2001/REC-SVG-20010904/DTD/svg10.dtd">
<svg version="1.0" xmlns="http://www.w3.org/2000/svg"
 width="174.000000pt" height="174.000000pt" viewBox="0 0 174.000000 174.000000"
 preserveAspectRatio="xMidYMid meet">
<metadata>
Created by potrace 1.14, written by Peter Selinger 2001-2017
</metadata>
<g transform="translate(0.000000,174.000000) scale(0.100000,-0.100000)"
fill="#000000" stroke="none">
<path d="M421 1370 c-6 -18 -6 -30 0 -30 5 0 9 5 9 10 0 6 4 10 10 10 5 0 7
-7 4 -15 -4 -8 -13 -15 -21 -15 -8 0 -11 -4 -8 -10 3 -5 2 -10 -3 -10 -5 0
-15 -13 -21 -29 -7 -15 -24 -34 -39 -42 -15 -7 -28 -14 -30 -15 -1 -1 -7 -16
-12 -34 -8 -29 -6 -35 20 -58 17 -15 30 -30 30 -35 0 -5 -13 -25 -30 -43 -48
-55 -73 -113 -76 -176 -3 -69 9 -107 55 -172 l34 -48 14 25 c23 44 122 60 137
21 6 -15 -29 -38 -44 -29 -13 8 -46 -16 -44 -32 1 -7 2 -20 3 -29 1 -13 9 -16
40 -11 47 6 65 -4 57 -30 -7 -22 0 -26 96 -57 105 -34 292 -48 418 -32 122 16
256 64 334 119 25 18 27 22 13 32 -11 7 -18 36 -22 87 -6 65 -4 76 10 82 11 4
29 -4 51 -24 19 -16 36 -30 38 -30 1 0 1 14 -2 30 -7 50 39 84 53 40 12 -39
24 -9 20 53 -4 75 -22 118 -71 175 -32 38 -195 158 -179 133 7 -12 -34 -41
-57 -41 -14 0 -13 -6 9 -45 13 -25 29 -45 34 -45 5 0 9 -4 9 -10 0 -23 -20 -7
-50 40 -34 52 -69 71 -95 50 -28 -23 21 -80 69 -80 18 0 27 -26 20 -56 -8 -33
14 -31 27 2 5 15 12 25 15 22 2 -3 0 -17 -5 -32 -8 -19 -17 -25 -36 -24 -28 3
-28 3 -15 28 8 15 5 19 -15 23 -14 2 -28 0 -31 -4 -11 -18 -25 -8 -19 12 11
32 -16 19 -37 -19 -14 -26 -15 -32 -3 -32 7 0 17 5 20 10 3 6 11 10 17 10 7 0
6 -6 -2 -15 -7 -8 -26 -15 -41 -15 -29 0 -29 0 -14 30 21 40 19 50 -10 50 -23
0 -31 -13 -26 -42 2 -15 -39 -8 -57 10 -24 24 -50 16 -54 -16 -4 -36 -48 -45
-49 -10 0 13 -2 32 -3 43 -17 118 -17 121 -4 95 23 -44 88 -98 88 -72 0 5 25
34 55 64 49 49 55 60 49 85 -4 15 -7 32 -8 37 -1 12 -38 56 -46 56 -4 0 -12
-11 -18 -25 -13 -28 -37 -33 -46 -10 -3 10 1 15 13 15 14 0 18 5 14 19 -5 20
5 30 39 36 26 5 38 23 30 43 -4 13 -7 12 -18 -3 -13 -17 -60 -13 -49 5 3 5 -6
3 -21 -5 -26 -13 -54 -11 -54 5 0 5 -9 6 -21 3 -11 -3 -17 -9 -12 -12 5 -3 17
-17 26 -30 13 -19 14 -29 5 -45 -6 -12 -10 -23 -9 -26 1 -2 -3 -6 -10 -9 -8
-2 -9 1 -3 10 6 11 5 12 -7 3 -8 -6 -31 -11 -51 -13 -38 -2 -38 -2 -38 38 0
31 -5 43 -21 51 -11 7 -23 9 -26 7 -2 -3 -17 -2 -32 3 -16 4 -35 3 -46 -3 -32
-17 -69 -14 -80 8 -12 24 -57 48 -65 35 -3 -5 -12 -5 -20 0 -28 18 -48 11 -59
-20z m85 1 c17 14 39 -1 49 -32 4 -12 16 -20 33 -20 24 -2 24 -2 5 -6 -13 -2
-23 -11 -23 -19 0 -8 -4 -12 -10 -9 -5 3 -10 17 -10 29 0 31 -28 56 -40 36 -4
-7 -7 -23 -5 -34 4 -20 3 -20 -8 -2 -7 11 -22 30 -34 43 -30 32 -29 39 3 18
20 -13 28 -14 40 -4z m243 -47 c8 -7 9 -54 0 -54 -4 0 -6 -6 -3 -14 3 -8 0
-17 -6 -21 -9 -6 -11 5 -9 38 4 45 4 46 -18 32 -18 -12 -23 -12 -33 0 -6 7
-20 12 -32 10 -16 -3 -18 -2 -8 10 9 11 24 13 58 8 26 -3 49 -7 51 -9z m-305
-13 c3 -4 -6 -19 -21 -32 l-26 -24 19 33 c20 35 21 36 28 23z m64 -49 c15 12
16 11 3 -4 -14 -19 -32 -15 -30 5 0 8 2 8 6 -1 4 -10 8 -10 21 0z m-82 -47 c1
-8 -2 -15 -7 -15 -5 0 -9 7 -9 15 0 8 -6 15 -14 15 -19 0 -29 -31 -15 -44 9
-8 10 -8 5 1 -3 6 -1 15 5 19 8 4 9 3 5 -5 -6 -9 7 -11 53 -7 34 3 61 2 61 -3
0 -9 1 -8 -93 -14 -38 -3 -71 -7 -74 -11 -3 -3 31 -41 76 -85 44 -44 81 -83
81 -86 0 -3 -40 33 -88 80 -92 89 -105 117 -66 138 10 6 21 13 24 17 17 24 52
15 56 -15z m109 14 c11 -16 1 -19 -13 -3 -7 8 -8 14 -3 14 5 0 13 -5 16 -11z
m390 2 c3 -5 1 -12 -5 -16 -5 -3 -10 0 -10 7 0 8 -5 6 -11 -4 -5 -10 -19 -18
-29 -18 -11 0 -21 -4 -21 -10 -2 -15 -5 -22 -17 -50 -14 -33 -15 -17 -1 31 9
29 18 39 38 42 14 3 -10 3 -54 0 -98 -5 -93 6 7 17 40 4 78 8 85 9 6 0 14 -3
18 -8z m-115 -51 c0 -16 -30 -31 -57 -28 -38 4 -37 31 2 38 33 6 55 2 55 -10z
m92 -18 c18 -15 15 -37 -3 -26 -5 3 -7 10 -4 15 6 8 -8 13 -27 10 -5 0 -8 6
-8 15 0 16 12 12 42 -14z m-305 -13 c1 -14 -5 -19 -23 -19 -13 0 -24 -4 -24
-8 0 -5 13 -7 30 -4 22 3 32 0 37 -14 4 -10 2 -19 -5 -22 -7 -2 -9 -9 -5 -15
4 -7 -1 -6 -10 2 -9 7 -23 11 -31 8 -15 -6 -31 18 -27 41 1 6 -4 12 -11 12
-26 0 -58 -13 -58 -22 0 -5 5 -6 10 -3 15 9 50 -4 50 -20 0 -7 -6 -16 -12 -18
-7 -3 -3 -6 8 -6 12 -1 24 -8 28 -16 3 -9 12 -12 23 -8 10 3 15 3 11 -1 -3 -4
-22 -11 -41 -16 -32 -7 -38 -4 -77 36 -38 39 -42 49 -17 45 4 0 7 4 7 10 0 5
-8 9 -17 8 -26 -3 -53 11 -53 27 0 10 14 14 50 14 39 0 50 -4 50 -16 0 -8 4
-13 10 -9 5 3 7 12 4 20 -4 10 4 15 28 17 48 5 64 -1 65 -23z m106 11 c-3 -12
-8 -19 -10 -16 -2 2 -18 0 -34 -4 -23 -7 -31 -5 -39 10 -15 29 -13 30 39 30
45 0 49 -2 44 -20z m97 -24 c0 -17 -15 -36 -29 -36 -22 0 -45 16 -38 27 5 9
67 17 67 9z m-90 -14 c0 -5 -13 -7 -30 -4 -16 2 -30 6 -30 8 0 2 14 4 30 4 17
0 30 -4 30 -8z m100 -46 c-4 -4 -16 -4 -26 2 -16 9 -14 10 8 9 15 -1 23 -6 18
-11z m-96 -13 c4 -9 2 -20 -5 -23 -17 -11 4 -20 31 -13 22 6 22 7 4 13 -16 6
-14 8 12 12 29 4 31 2 30 -26 -1 -41 -37 -48 -73 -14 -14 13 -32 22 -42 20
-26 -4 -25 36 2 41 12 2 25 5 28 6 4 0 10 -7 13 -16z m104 -35 c0 -18 2 -43 6
-55 5 -15 1 -25 -14 -36 -14 -10 -17 -16 -9 -19 7 -2 10 -10 8 -17 -4 -11 -8
-10 -21 3 -18 18 -33 22 -23 6 3 -6 -1 -7 -9 -4 -22 9 -12 20 25 28 28 5 30 9
29 43 -3 53 -1 83 5 83 2 0 4 -15 3 -32z m-173 -13 c6 0 11 -9 13 -21 2 -16
-2 -20 -19 -19 -23 2 -44 29 -34 45 4 6 12 7 18 3 7 -4 17 -8 22 -8z m-61 -14
c3 -4 -7 -6 -22 -3 -25 5 -26 4 -12 -14 14 -17 14 -18 -2 -6 -10 8 -23 10 -30
6 -10 -6 -9 -3 1 9 14 18 56 23 65 8z m117 -19 c-7 -2 -18 1 -23 6 -8 8 -4 9
13 5 13 -4 18 -8 10 -11z m-101 -6 c0 -2 -7 -7 -16 -10 -8 -3 -12 -2 -9 4 6
10 25 14 25 6z m190 -16 c0 -13 -59 -28 -136 -34 -17 -2 -36 -6 -42 -10 -10
-6 -47 22 -39 30 2 2 21 6 43 9 173 23 174 24 174 5z m-140 -60 c0 -5 -2 -10
-4 -10 -3 0 -8 5 -11 10 -3 6 -1 10 4 10 6 0 11 -4 11 -10z m588 -132 c13 -52
6 -118 -14 -138 -11 -10 -36 -21 -56 -24 -29 -5 -42 -1 -62 17 -44 39 -53 177
-11 161 15 -6 40 -78 31 -93 -3 -4 1 -17 9 -27 11 -15 17 -17 32 -8 15 9 18
23 16 70 -3 57 5 73 34 74 7 0 16 -15 21 -32z m79 -5 c15 -60 11 -137 -7 -140
-29 -5 -38 12 -44 88 -6 79 -4 89 24 89 12 0 21 -12 27 -37z m-303 -9 c27 -26
37 -52 34 -88 -1 -19 4 -42 12 -51 18 -22 0 -40 -31 -29 -13 5 -42 7 -65 5
-53 -3 -92 28 -101 81 -5 32 -1 41 25 68 24 23 39 30 71 30 23 0 46 -7 55 -16z
m-186 -21 c9 -12 11 -32 7 -59 -4 -30 -2 -44 10 -54 12 -10 13 -16 4 -26 -17
-21 -37 -17 -61 11 -24 27 -39 25 -31 -5 7 -26 -25 -40 -42 -17 -6 8 -12 37
-13 64 -2 26 -5 55 -7 63 -7 22 6 37 35 42 43 7 84 -1 98 -19z m-195 -23 c15
-16 24 -30 20 -30 -5 0 -3 -4 2 -8 17 -12 45 -81 39 -97 -8 -19 -14 -19 -42 1
-27 19 -62 15 -80 -8 -18 -25 -42 -22 -43 5 -4 83 28 167 65 167 7 0 25 -13
39 -30z"/>
<path d="M485 1060 c3 -5 8 -10 11 -10 2 0 4 5 4 10 0 6 -5 10 -11 10 -5 0 -7
-4 -4 -10z"/>
<path d="M933 713 c-21 -8 -16 -61 6 -68 40 -12 62 15 45 59 -6 16 -27 19 -51
9z"/>
<path d="M766 701 c-4 -5 -2 -12 3 -15 5 -4 12 -2 15 3 4 5 2 12 -3 15 -5 4
-12 2 -15 -3z"/>
<path d="M590 655 c0 -14 4 -25 9 -25 12 0 19 21 13 38 -8 21 -22 13 -22 -13z"/>
<path d="M1070 1220 c13 -24 -8 -82 -35 -97 -21 -12 -21 -24 -1 -35 8 -5 13
-14 11 -21 -4 -8 7 -12 30 -13 19 0 35 1 35 2 0 2 -5 15 -10 29 -7 18 -7 33 1
46 8 16 7 25 -7 40 -10 11 -12 19 -6 19 7 0 12 -4 12 -9 0 -23 93 -38 126 -20
13 7 24 15 24 19 0 8 -113 47 -158 55 -31 5 -32 4 -22 -15z"/>
<path d="M1300 1197 c0 -9 19 -26 43 -40 105 -62 197 -177 210 -264 14 -88
-61 -216 -175 -300 -27 -19 -48 -39 -48 -44 0 -19 25 -8 74 33 226 190 231
383 16 548 -25 19 -47 37 -50 40 -3 3 -20 13 -37 23 -27 15 -33 16 -33 4z"/>
<path d="M293 1077 c-61 -81 -82 -142 -80 -227 2 -61 8 -85 32 -129 42 -77
193 -208 210 -182 3 5 -14 23 -37 39 -83 58 -148 134 -171 199 -22 64 -5 213
24 213 5 0 9 6 9 14 0 7 16 33 35 58 30 40 35 59 16 58 -3 0 -20 -20 -38 -43z"/>
<path d="M877 1073 c-4 -6 -3 -22 1 -35 5 -12 8 -33 7 -45 -2 -30 13 -29 20 0
7 28 -18 97 -28 80z"/>
<path d="M971 1058 c-11 -29 -5 -45 20 -51 20 -5 26 7 8 18 -6 5 -3 13 10 22
28 19 26 33 -4 33 -17 0 -28 -7 -34 -22z"/>
<path d="M1155 1030 c3 -5 14 -10 23 -10 15 0 15 2 2 10 -20 13 -33 13 -25 0z"/>
<path d="M1408 682 c-5 -34 2 -41 21 -19 8 10 7 18 -3 32 -12 17 -14 16 -18
-13z"/>
<path d="M458 523 c-6 -15 -13 -36 -14 -45 -2 -10 -5 -23 -6 -29 -4 -15 126
-63 228 -84 94 -20 262 -26 359 -13 137 18 305 71 305 98 0 8 -7 33 -16 56
l-16 42 -56 -23 c-55 -22 -139 -45 -232 -62 -135 -26 -391 10 -509 72 -31 15
-31 15 -43 -12z m59 -58 c0 -8 -3 -13 -5 -10 -3 3 -12 -1 -21 -7 -10 -8 -9 -4
3 10 23 26 23 26 23 7z m703 -16 c0 -6 7 -8 18 -4 14 5 15 4 4 -6 -10 -11 -15
-10 -29 4 -11 11 -13 17 -5 17 7 0 12 -5 12 -11z m-69 -26 c13 -17 13 -17 -6
-3 -11 8 -22 16 -24 17 -2 2 0 3 6 3 6 0 17 -8 24 -17z m-491 -9 c0 -2 -9 -4
-20 -4 -11 0 -20 4 -20 9 0 5 9 7 20 4 11 -3 20 -7 20 -9z m110 -6 c0 -5 -9
-8 -19 -8 -11 0 -22 3 -24 8 -3 4 6 7 19 7 13 0 24 -3 24 -7z"/>
</g>
</svg>
